# xmcd
#
# Track frame offsets:
#	150
#	15808
#	29033
#	43315
#	62533
#	70602
#	86401
#	101927
#	113284
#	124486
#	140326
#	152574
#	166254
#	178586
#	191260
#	205665
#	219004
#	229858
#	243633
#	254033
#	266012
#	285944
#	298758
#	310359
#
# Disc length: 4289 seconds
#
# Revision: 1
# Processed by: cddbd v1.5.1PL2 Copyright (c) Steve Scherf et al.
# Submitted via: audiograbber 1.83.01
#
DISCID=5310bf18
DTITLE=Country Gentlemen - The Complete Vanguard Recordings
DYEAR=2002
DGENRE=Bluegrass
TTITLE0=Travelling kind
TTITLE1=Don Quixote
TTITLE2=One morning in May
TTITLE3=Casey's last ride
TTITLE4=The leaves that are green
TTITLE5=Paradise
TTITLE6=House of the rising sun
TTITLE7=Catfish John
TTITLE8=Mother of a miner's child
TTITLE9=Bringing Mary home
TTITLE10=Souvenirs
TTITLE11=The city of New Orleans
TTITLE12=Willow Creek dam
TTITLE13=Remembrance of you
TTITLE14=Irish spring
TTITLE15=Billy McGhee
TTITLE16=Home in Louisiana
TTITLE17=King of spades
TTITLE18=The little grave
TTITLE19=Delta queen
TTITLE20=Heartaches
TTITLE21=Welcome to New York
TTITLE22=Lord protect my soul
TTITLE23=Circuit rider
EXTD=
EXTT0=
EXTT1=
EXTT2=
EXTT3=
EXTT4=
EXTT5=
EXTT6=
EXTT7=
EXTT8=
EXTT9=
EXTT10=
EXTT11=
EXTT12=
EXTT13=
EXTT14=
EXTT15=
EXTT16=
EXTT17=
EXTT18=
EXTT19=
EXTT20=
EXTT21=
EXTT22=
EXTT23=
PLAYORDER=
